<svg width="24" height="24" viewBox="0 0 24 24" fill="none" xmlns="http://www.w3.org/2000/svg">
<g clip-path="url(#clip0_52_54)">
<path d="M12 0C5.37188 0 0 5.37188 0 12C0 18.6281 5.37188 24 12 24C18.6281 24 24 18.6281 24 12C24 5.37188 18.6281 0 12 0ZM19.4906 19.4859C18.5156 20.4609 17.3859 21.225 16.125 21.7547C14.8219 22.3078 13.4344 22.5844 12 22.5844C10.5703 22.5844 9.18281 22.3031 7.875 21.7547C6.61406 21.2203 5.47969 20.4563 4.50937 19.4859C3.53437 18.5109 2.77031 17.3813 2.24062 16.1203C1.6875 14.8172 1.40625 13.4297 1.40625 12C1.40625 10.5703 1.6875 9.18281 2.23594 7.875C2.77031 6.61406 3.53437 5.47969 4.50469 4.50937C5.48438 3.53437 6.61406 2.77031 7.875 2.23594C9.18281 1.6875 10.5703 1.40625 12 1.40625C13.4297 1.40625 14.8172 1.6875 16.125 2.23594C17.3859 2.77031 18.5203 3.53437 19.4906 4.50469C20.4656 5.47969 21.2297 6.60937 21.7594 7.87031C22.3125 9.17344 22.5891 10.5609 22.5891 11.9953C22.5891 13.425 22.3078 14.8125 21.7594 16.1203C21.225 17.3813 20.4609 18.5156 19.4906 19.4859Z" fill="#A9A9A9"/>
<path d="M16.8468 8.54541H13.6687V9.46885H16.8468V8.54541Z" fill="#A9A9A9"/>
<path d="M17.5125 11.053C17.2641 10.6827 16.95 10.4108 16.5657 10.2421C16.186 10.0686 15.7547 9.98427 15.2719 9.98895C14.4704 9.98895 13.8188 10.2421 13.3125 10.7483C12.811 11.2546 12.5579 11.9811 12.5579 12.9327C12.5579 13.9452 12.8391 14.6765 13.3969 15.1265C13.9547 15.5765 14.5969 15.8015 15.3282 15.8015C16.2141 15.8015 16.8985 15.5343 17.3907 14.9999C17.7047 14.6624 17.8829 14.3296 17.9204 14.0061H16.4579C16.3735 14.1702 16.275 14.2968 16.1625 14.3858C15.9563 14.5546 15.6891 14.639 15.3657 14.639C15.0563 14.639 14.7938 14.5686 14.5735 14.4327C14.2125 14.2124 14.025 13.8233 14.0016 13.2749H17.9954C18.0047 12.8015 17.986 12.4405 17.9485 12.1874C17.8829 11.7561 17.7375 11.3765 17.5125 11.053ZM14.0391 12.328C14.0954 11.9718 14.2219 11.6905 14.4235 11.4796C14.625 11.2733 14.911 11.1655 15.2766 11.1655C15.6141 11.1655 15.9 11.264 16.1297 11.4608C16.3547 11.6577 16.4813 11.9483 16.5094 12.328H14.0391Z" fill="#A9A9A9"/>
<path d="M10.9359 11.6389C11.1844 11.5123 11.3766 11.3717 11.5031 11.217C11.7328 10.9404 11.8453 10.5748 11.8453 10.1248C11.8453 9.68418 11.7328 9.30449 11.5078 8.99043C11.1281 8.47481 10.4859 8.2123 9.58594 8.19824H6V15.6186H9.3375C9.71719 15.6186 10.0641 15.5857 10.3875 15.5201C10.7109 15.4498 10.9922 15.3279 11.2266 15.1451C11.4375 14.9904 11.6109 14.7936 11.7516 14.5639C11.9766 14.217 12.0844 13.8232 12.0844 13.3826C12.0844 12.9561 11.9859 12.5951 11.7938 12.2951C11.6016 11.9951 11.3156 11.7795 10.9359 11.6389ZM7.47656 9.4873H9.08906C9.44531 9.4873 9.73594 9.52949 9.96563 9.60449C10.2328 9.71699 10.3641 9.94199 10.3641 10.2889C10.3641 10.5982 10.2656 10.8186 10.0641 10.9404C9.8625 11.0623 9.60469 11.1232 9.28125 11.1232H7.47656V9.4873ZM10.0312 14.1936C9.85313 14.2826 9.60469 14.3248 9.28125 14.3248H7.47656V12.3467H9.30469C9.62344 12.3514 9.86719 12.3936 10.0453 12.4732C10.3641 12.6186 10.5187 12.8857 10.5187 13.2701C10.5187 13.7248 10.3594 14.0295 10.0312 14.1936Z" fill="#A9A9A9"/>
</g>
<defs>
<clipPath id="clip0_52_54">
<rect width="24" height="24" fill="white"/>
</clipPath>
</defs>
</svg>
