<svg width="222" height="95" viewBox="0 0 222 95" fill="none" xmlns="http://www.w3.org/2000/svg">
<path d="M55.875 62.8125H74.5625C74.1875 68.9375 72.5 74.375 69.5 79.125C66.5417 83.875 62.3958 87.5833 57.0625 90.25C51.7708 92.9167 45.3958 94.25 37.9375 94.25C32.1042 94.25 26.875 93.25 22.25 91.25C17.625 89.2083 13.6667 86.2917 10.375 82.5C7.125 78.7083 4.64583 74.125 2.9375 68.75C1.22917 63.375 0.375 57.3542 0.375 50.6875V44.375C0.375 37.7083 1.25 31.6875 3 26.3125C4.79167 20.8958 7.33333 16.2917 10.625 12.5C13.9583 8.70833 17.9375 5.79167 22.5625 3.75C27.1875 1.70833 32.3542 0.6875 38.0625 0.6875C45.6458 0.6875 52.0417 2.0625 57.25 4.8125C62.5 7.5625 66.5625 11.3542 69.4375 16.1875C72.3542 21.0208 74.1042 26.5208 74.6875 32.6875H55.9375C55.7292 29.0208 55 25.9167 53.75 23.375C52.5 20.7917 50.6042 18.8542 48.0625 17.5625C45.5625 16.2292 42.2292 15.5625 38.0625 15.5625C34.9375 15.5625 32.2083 16.1458 29.875 17.3125C27.5417 18.4792 25.5833 20.25 24 22.625C22.4167 25 21.2292 28 20.4375 31.625C19.6875 35.2083 19.3125 39.4167 19.3125 44.25V50.6875C19.3125 55.3958 19.6667 59.5417 20.375 63.125C21.0833 66.6667 22.1667 69.6667 23.625 72.125C25.125 74.5417 27.0417 76.375 29.375 77.625C31.75 78.8333 34.6042 79.4375 37.9375 79.4375C41.8542 79.4375 45.0833 78.8125 47.625 77.5625C50.1667 76.3125 52.1042 74.4583 53.4375 72C54.8125 69.5417 55.625 66.4792 55.875 62.8125ZM129.13 69.1875C129.13 67.5625 128.88 66.1042 128.38 64.8125C127.922 63.4792 127.047 62.2708 125.755 61.1875C124.463 60.0625 122.651 58.9583 120.317 57.875C117.984 56.7917 114.963 55.6667 111.255 54.5C107.13 53.1667 103.213 51.6667 99.505 50C95.8383 48.3333 92.5883 46.3958 89.755 44.1875C86.9633 41.9375 84.755 39.3333 83.13 36.375C81.5467 33.4167 80.755 29.9792 80.755 26.0625C80.755 22.2708 81.5883 18.8333 83.255 15.75C84.9217 12.625 87.255 9.95833 90.255 7.75C93.255 5.5 96.7967 3.77083 100.88 2.5625C105.005 1.35417 109.526 0.75 114.442 0.75C121.151 0.75 127.005 1.95833 132.005 4.375C137.005 6.79167 140.88 10.1042 143.63 14.3125C146.422 18.5208 147.817 23.3333 147.817 28.75H129.192C129.192 26.0833 128.63 23.75 127.505 21.75C126.422 19.7083 124.755 18.1042 122.505 16.9375C120.297 15.7708 117.505 15.1875 114.13 15.1875C110.88 15.1875 108.172 15.6875 106.005 16.6875C103.838 17.6458 102.213 18.9583 101.13 20.625C100.047 22.25 99.505 24.0833 99.505 26.125C99.505 27.6667 99.88 29.0625 100.63 30.3125C101.422 31.5625 102.588 32.7292 104.13 33.8125C105.672 34.8958 107.567 35.9167 109.817 36.875C112.067 37.8333 114.672 38.7708 117.63 39.6875C122.588 41.1875 126.942 42.875 130.692 44.75C134.484 46.625 137.651 48.7292 140.192 51.0625C142.734 53.3958 144.651 56.0417 145.942 59C147.234 61.9583 147.88 65.3125 147.88 69.0625C147.88 73.0208 147.109 76.5625 145.567 79.6875C144.026 82.8125 141.797 85.4583 138.88 87.625C135.963 89.7917 132.484 91.4375 128.442 92.5625C124.401 93.6875 119.88 94.25 114.88 94.25C110.38 94.25 105.942 93.6667 101.567 92.5C97.1925 91.2917 93.2133 89.4792 89.63 87.0625C86.0883 84.6458 83.255 81.5625 81.13 77.8125C79.005 74.0625 77.9425 69.625 77.9425 64.5H96.755C96.755 67.3333 97.1925 69.7292 98.0675 71.6875C98.9425 73.6458 100.172 75.2292 101.755 76.4375C103.38 77.6458 105.297 78.5208 107.505 79.0625C109.755 79.6042 112.213 79.875 114.88 79.875C118.13 79.875 120.797 79.4167 122.88 78.5C125.005 77.5833 126.567 76.3125 127.567 74.6875C128.609 73.0625 129.13 71.2292 129.13 69.1875ZM202.885 69.1875C202.885 67.5625 202.635 66.1042 202.135 64.8125C201.677 63.4792 200.802 62.2708 199.51 61.1875C198.218 60.0625 196.406 58.9583 194.072 57.875C191.739 56.7917 188.718 55.6667 185.01 54.5C180.885 53.1667 176.968 51.6667 173.26 50C169.593 48.3333 166.343 46.3958 163.51 44.1875C160.718 41.9375 158.51 39.3333 156.885 36.375C155.302 33.4167 154.51 29.9792 154.51 26.0625C154.51 22.2708 155.343 18.8333 157.01 15.75C158.677 12.625 161.01 9.95833 164.01 7.75C167.01 5.5 170.552 3.77083 174.635 2.5625C178.76 1.35417 183.281 0.75 188.197 0.75C194.906 0.75 200.76 1.95833 205.76 4.375C210.76 6.79167 214.635 10.1042 217.385 14.3125C220.177 18.5208 221.572 23.3333 221.572 28.75H202.947C202.947 26.0833 202.385 23.75 201.26 21.75C200.177 19.7083 198.51 18.1042 196.26 16.9375C194.052 15.7708 191.26 15.1875 187.885 15.1875C184.635 15.1875 181.927 15.6875 179.76 16.6875C177.593 17.6458 175.968 18.9583 174.885 20.625C173.802 22.25 173.26 24.0833 173.26 26.125C173.26 27.6667 173.635 29.0625 174.385 30.3125C175.177 31.5625 176.343 32.7292 177.885 33.8125C179.427 34.8958 181.322 35.9167 183.572 36.875C185.822 37.8333 188.427 38.7708 191.385 39.6875C196.343 41.1875 200.697 42.875 204.447 44.75C208.239 46.625 211.406 48.7292 213.947 51.0625C216.489 53.3958 218.406 56.0417 219.697 59C220.989 61.9583 221.635 65.3125 221.635 69.0625C221.635 73.0208 220.864 76.5625 219.322 79.6875C217.781 82.8125 215.552 85.4583 212.635 87.625C209.718 89.7917 206.239 91.4375 202.197 92.5625C198.156 93.6875 193.635 94.25 188.635 94.25C184.135 94.25 179.697 93.6667 175.322 92.5C170.947 91.2917 166.968 89.4792 163.385 87.0625C159.843 84.6458 157.01 81.5625 154.885 77.8125C152.76 74.0625 151.697 69.625 151.697 64.5H170.51C170.51 67.3333 170.947 69.7292 171.822 71.6875C172.697 73.6458 173.927 75.2292 175.51 76.4375C177.135 77.6458 179.052 78.5208 181.26 79.0625C183.51 79.6042 185.968 79.875 188.635 79.875C191.885 79.875 194.552 79.4167 196.635 78.5C198.76 77.5833 200.322 76.3125 201.322 74.6875C202.364 73.0625 202.885 71.2292 202.885 69.1875Z" fill="black" fill-opacity="0.1"/>
</svg>
