<svg width="14" height="32" viewBox="0 0 14 32" fill="none" xmlns="http://www.w3.org/2000/svg">
<g clip-path="url(#clip0_52_176)">
<path d="M8.55091 28.648C8.72994 28.5906 8.86746 28.5451 9.00628 28.5024C12.1952 27.5097 14.223 24.4289 13.9804 20.9433C13.7586 17.7542 11.2689 15.0154 8.09942 14.493C7.35213 14.3701 6.5724 14.3928 5.85236 14.1858C3.90759 13.626 2.7646 11.5124 3.22906 9.47633C3.68704 7.46965 5.62143 6.13632 7.58436 6.47433C9.52264 6.80833 10.7863 8.32603 10.8836 10.4369C10.9264 11.3641 11.5997 12.0201 12.491 12.0014C13.3382 11.984 13.9882 11.2866 13.9895 10.3781C13.9921 8.62664 13.4264 7.08622 12.3367 5.75155C11.3403 4.53044 10.0675 3.7569 8.5522 3.36144C8.5522 2.7736 8.55609 2.20847 8.5522 1.64334C8.54312 0.697443 7.89573 0.00672853 7.0187 4.8499e-05C6.10924 -0.00663153 5.45147 0.677403 5.44498 1.64467C5.44109 2.22183 5.44498 2.79898 5.44498 3.35476C5.27892 3.41087 5.17253 3.45095 5.06355 3.48301C1.85384 4.42356 -0.196014 7.48702 0.0141613 11.0301C0.202281 14.1951 2.73865 17.0061 5.87182 17.5031C6.61911 17.622 7.39754 17.6046 8.12017 17.809C10.0766 18.3621 11.2209 20.4436 10.7746 22.4984C10.3361 24.5198 8.39133 25.8598 6.38947 25.5218C4.47584 25.1984 3.21609 23.666 3.1136 21.5391C3.07078 20.6413 2.40134 19.9907 1.53209 20C0.674527 20.0094 0.0206482 20.6934 0.00767446 21.5966C-0.0312469 24.5064 1.80065 27.2746 4.44989 28.3033C4.77554 28.4302 5.10896 28.5385 5.44628 28.66C5.44628 29.2693 5.4385 29.8518 5.44758 30.4342C5.46055 31.3227 6.13908 32.0014 7.00184 32C7.86459 32 8.53663 31.3214 8.55091 30.4289C8.55999 29.8464 8.5522 29.2639 8.5522 28.648H8.55091Z" fill="#141414"/>
<path d="M8.55091 28.648C8.55091 29.2652 8.5587 29.8464 8.54962 30.4289C8.53664 31.3214 7.8633 31.9987 7.00055 32C6.13909 32 5.46056 31.3227 5.44629 30.4342C5.43721 29.8518 5.44499 29.2693 5.44499 28.66C5.10638 28.5398 4.77425 28.4302 4.44861 28.3033C1.79936 27.2759 -0.0325359 24.5064 0.00638543 21.5966C0.0180618 20.6948 0.673237 20.0094 1.5308 20C2.40134 19.9907 3.06949 20.6413 3.11231 21.5391C3.2148 23.666 4.47455 25.1984 6.38819 25.5218C8.39004 25.8598 10.3348 24.5198 10.7733 22.4984C11.2196 20.4436 10.0753 18.3621 8.11889 17.809C7.39625 17.6046 6.61782 17.622 5.87053 17.5031C2.73996 17.0061 0.203587 14.1951 0.0141697 11.0301C-0.196005 7.48702 1.85255 4.42356 5.06227 3.48301C5.17125 3.45095 5.27763 3.41087 5.44369 3.35476C5.44369 2.79898 5.4411 2.22183 5.44369 1.64467C5.45278 0.677403 6.10925 -0.00663153 7.01871 4.8499e-05C7.89574 0.00672853 8.54313 0.697443 8.54962 1.64066C8.55351 2.20579 8.54962 2.77092 8.54962 3.35877C10.065 3.75289 11.3377 4.52643 12.3341 5.74888C13.4239 7.08488 13.9895 8.6253 13.9869 10.3755C13.9856 11.284 13.3356 11.9813 12.4885 11.9987C11.5972 12.0174 10.9238 11.3614 10.881 10.4342C10.785 8.32336 9.52135 6.80566 7.58177 6.47166C5.61754 6.13365 3.68315 7.46698 3.22648 9.47366C2.76202 11.5097 3.90371 13.6233 5.84977 14.1831C6.56982 14.3902 7.35084 14.3674 8.09683 14.4904C11.2663 15.0127 13.756 17.7529 13.9778 20.9406C14.2205 24.4262 12.1939 27.5071 9.0037 28.4997C8.86488 28.5425 8.72736 28.5879 8.54832 28.6453L8.55091 28.648Z" fill="#141414"/>
</g>
<defs>
<clipPath id="clip0_52_176">
<rect width="14" height="32" fill="white"/>
</clipPath>
</defs>
</svg>
