<svg width="36" height="36" viewBox="0 0 36 36" fill="none" xmlns="http://www.w3.org/2000/svg">
<path d="M23.0006 5.625H12.9983C11.0432 5.62649 9.16865 6.40379 7.78622 7.78622C6.40379 9.16865 5.62649 11.0432 5.625 12.9983V23.0006C5.62619 24.9559 6.40336 26.8307 7.78582 28.2134C9.16828 29.5961 11.043 30.3735 12.9983 30.375H23.0006C24.9558 30.3732 26.8303 29.5957 28.2127 28.2131C29.5951 26.8304 30.3724 24.9558 30.3739 23.0006V12.9983C30.373 11.043 29.5959 9.16812 28.2133 7.78556C26.8308 6.403 24.9559 5.62589 23.0006 5.625ZM27.8854 23.0006C27.8851 24.296 27.3703 25.5383 26.4543 26.4543C25.5383 27.3703 24.296 27.8851 23.0006 27.8854H12.9983C12.3568 27.8854 11.7217 27.759 11.1291 27.5135C10.5365 27.268 9.99811 26.9082 9.54461 26.4546C9.09111 26.001 8.7314 25.4625 8.48605 24.8699C8.24069 24.2772 8.11448 23.642 8.11462 23.0006V12.9983C8.11448 12.3569 8.24069 11.7218 8.48607 11.1292C8.73144 10.5366 9.09116 9.99819 9.54468 9.54468C9.99819 9.09116 10.5366 8.73144 11.1292 8.48607C11.7218 8.24069 12.3569 8.11448 12.9983 8.11462H23.0006C24.2958 8.11492 25.5377 8.62954 26.4535 9.54533C27.3693 10.4611 27.884 11.7031 27.8842 12.9983L27.8854 23.0006Z" fill="#A9A9A9"/>
<path d="M18 11.6009C14.4697 11.6009 11.601 14.4707 11.601 17.9999C11.601 21.529 14.4708 24.3989 18 24.3989C21.5291 24.3989 24.399 21.529 24.399 17.9999C24.399 14.4707 21.5302 11.6009 18 11.6009ZM18 21.9092C16.9631 21.9094 15.9687 21.4977 15.2354 20.7646C14.5022 20.0316 14.0902 19.0373 14.09 18.0004C14.0899 16.9636 14.5016 15.9692 15.2346 15.2359C15.9677 14.5027 16.962 14.0906 17.9988 14.0905C19.0357 14.0903 20.0301 14.5021 20.7633 15.2351C21.4966 15.9682 21.9086 16.9625 21.9088 17.9993C21.9089 19.0361 21.4972 20.0306 20.7641 20.7638C20.0311 21.4971 19.0368 21.9091 18 21.9092ZM24.4125 10.1147C24.7156 10.115 25.0119 10.2051 25.2639 10.3736C25.5159 10.5422 25.7123 10.7817 25.8282 11.0618C25.9441 11.342 25.9744 11.6502 25.9152 11.9475C25.856 12.2449 25.71 12.518 25.4956 12.7324C25.2812 12.9468 25.0081 13.0928 24.7107 13.152C24.4134 13.2112 24.1052 13.1809 23.825 13.065C23.5449 12.9491 23.3054 12.7527 23.1368 12.5007C22.9683 12.2487 22.8782 11.9524 22.878 11.6492C22.878 10.8032 23.4517 10.1147 24.4125 10.1147Z" fill="#A9A9A9"/>
</svg>
