<svg width="139" height="95" viewBox="0 0 139 95" fill="none" xmlns="http://www.w3.org/2000/svg">
<path d="M42.9375 65.0625V2H61.625V65.0625C61.625 71.1458 60.2917 76.375 57.625 80.75C54.9583 85.0833 51.3125 88.4167 46.6875 90.75C42.1042 93.0833 36.9375 94.25 31.1875 94.25C25.2292 94.25 19.9583 93.25 15.375 91.25C10.7917 89.25 7.1875 86.1875 4.5625 82.0625C1.9375 77.8958 0.625 72.625 0.625 66.25H19.4375C19.4375 69.5833 19.8958 72.2292 20.8125 74.1875C21.7708 76.1458 23.125 77.5417 24.875 78.375C26.625 79.2083 28.7292 79.625 31.1875 79.625C33.5625 79.625 35.625 79.0625 37.375 77.9375C39.125 76.8125 40.4792 75.1667 41.4375 73C42.4375 70.8333 42.9375 68.1875 42.9375 65.0625ZM119.88 69.1875C119.88 67.5625 119.63 66.1042 119.13 64.8125C118.672 63.4792 117.797 62.2708 116.505 61.1875C115.213 60.0625 113.401 58.9583 111.067 57.875C108.734 56.7917 105.713 55.6667 102.005 54.5C97.88 53.1667 93.9633 51.6667 90.255 50C86.5883 48.3333 83.3383 46.3958 80.505 44.1875C77.7133 41.9375 75.505 39.3333 73.88 36.375C72.2967 33.4167 71.505 29.9792 71.505 26.0625C71.505 22.2708 72.3383 18.8333 74.005 15.75C75.6717 12.625 78.005 9.95833 81.005 7.75C84.005 5.5 87.5467 3.77083 91.63 2.5625C95.755 1.35417 100.276 0.75 105.192 0.75C111.901 0.75 117.755 1.95833 122.755 4.375C127.755 6.79167 131.63 10.1042 134.38 14.3125C137.172 18.5208 138.567 23.3333 138.567 28.75H119.942C119.942 26.0833 119.38 23.75 118.255 21.75C117.172 19.7083 115.505 18.1042 113.255 16.9375C111.047 15.7708 108.255 15.1875 104.88 15.1875C101.63 15.1875 98.9217 15.6875 96.755 16.6875C94.5883 17.6458 92.9633 18.9583 91.88 20.625C90.7967 22.25 90.255 24.0833 90.255 26.125C90.255 27.6667 90.63 29.0625 91.38 30.3125C92.1717 31.5625 93.3383 32.7292 94.88 33.8125C96.4217 34.8958 98.3175 35.9167 100.567 36.875C102.817 37.8333 105.422 38.7708 108.38 39.6875C113.338 41.1875 117.692 42.875 121.442 44.75C125.234 46.625 128.401 48.7292 130.942 51.0625C133.484 53.3958 135.401 56.0417 136.692 59C137.984 61.9583 138.63 65.3125 138.63 69.0625C138.63 73.0208 137.859 76.5625 136.317 79.6875C134.776 82.8125 132.547 85.4583 129.63 87.625C126.713 89.7917 123.234 91.4375 119.192 92.5625C115.151 93.6875 110.63 94.25 105.63 94.25C101.13 94.25 96.6925 93.6667 92.3175 92.5C87.9425 91.2917 83.9633 89.4792 80.38 87.0625C76.8383 84.6458 74.005 81.5625 71.88 77.8125C69.755 74.0625 68.6925 69.625 68.6925 64.5H87.505C87.505 67.3333 87.9425 69.7292 88.8175 71.6875C89.6925 73.6458 90.9217 75.2292 92.505 76.4375C94.13 77.6458 96.0467 78.5208 98.255 79.0625C100.505 79.6042 102.963 79.875 105.63 79.875C108.88 79.875 111.547 79.4167 113.63 78.5C115.755 77.5833 117.317 76.3125 118.317 74.6875C119.359 73.0625 119.88 71.2292 119.88 69.1875Z" fill="black" fill-opacity="0.1"/>
</svg>
