<svg width="101" height="123" viewBox="0 0 101 123" fill="none" xmlns="http://www.w3.org/2000/svg">
<path d="M33.5625 0.1875L37.0625 9.9375C33.2708 11.3125 30.6875 13.75 29.3125 17.25C27.9375 20.7083 27.25 24.7083 27.25 29.25V42C27.25 46.2083 26.3125 50.0208 24.4375 53.4375C22.6042 56.8542 19.6875 59.5833 15.6875 61.625C11.6875 63.625 6.45833 64.625 0 64.625V55.125C3.95833 55.125 6.79167 53.9375 8.5 51.5625C10.25 49.1875 11.125 46 11.125 42V29.25C11.125 24.875 11.7917 20.7917 13.125 17C14.5 13.1667 16.8125 9.8125 20.0625 6.9375C23.3542 4.02083 27.8542 1.77083 33.5625 0.1875ZM37.0625 112.812L33.5625 122.625C27.8542 121 23.3542 118.729 20.0625 115.812C16.8125 112.938 14.5 109.583 13.125 105.75C11.7917 101.958 11.125 97.875 11.125 93.5V80.75C11.125 78.0833 10.7292 75.7708 9.9375 73.8125C9.1875 71.8542 8 70.3542 6.375 69.3125C4.75 68.2292 2.625 67.6875 0 67.6875V58.125C6.45833 58.125 11.6875 59.1458 15.6875 61.1875C19.6875 63.1875 22.6042 65.8958 24.4375 69.3125C26.3125 72.7292 27.25 76.5417 27.25 80.75V93.5C27.25 96.5417 27.5417 99.3542 28.125 101.938C28.75 104.521 29.75 106.75 31.125 108.625C32.5417 110.5 34.5208 111.896 37.0625 112.812ZM63.01 9.9375L66.51 0.1875C72.26 1.77083 76.76 4.02083 80.01 6.9375C83.26 9.8125 85.5517 13.1667 86.885 17C88.26 20.7917 88.9475 24.875 88.9475 29.25V42C88.9475 44.6667 89.3225 46.9792 90.0725 48.9375C90.8225 50.8958 92.01 52.4167 93.635 53.5C95.3017 54.5833 97.4475 55.125 100.073 55.125V64.375C93.6142 64.375 88.385 63.3958 84.385 61.4375C80.385 59.4792 77.4475 56.8125 75.5725 53.4375C73.6975 50.0208 72.76 46.2083 72.76 42V29.25C72.76 26.2083 72.4683 23.3958 71.885 20.8125C71.3433 18.2292 70.3642 16 68.9475 14.125C67.5308 12.25 65.5517 10.8542 63.01 9.9375ZM66.51 122.625L63.01 112.812C65.5517 111.896 67.5308 110.5 68.9475 108.625C70.3642 106.75 71.3433 104.521 71.885 101.938C72.4683 99.3542 72.76 96.5417 72.76 93.5V80.75C72.76 76.5417 73.6975 72.75 75.5725 69.375C77.4475 66 80.385 63.3333 84.385 61.375C88.385 59.375 93.6142 58.375 100.073 58.375V67.6875C96.1558 67.6875 93.3225 68.875 91.5725 71.25C89.8225 73.625 88.9475 76.7917 88.9475 80.75V93.5C88.9475 97.875 88.26 101.958 86.885 105.75C85.5517 109.583 83.26 112.938 80.01 115.812C76.76 118.729 72.26 121 66.51 122.625Z" fill="black" fill-opacity="0.1"/>
</svg>
