<svg width="30" height="30" viewBox="0 0 30 30" fill="none" xmlns="http://www.w3.org/2000/svg">
<path d="M22.8125 4.6875H7.1875C5.80679 4.6875 4.6875 5.80679 4.6875 7.1875V22.8125C4.6875 24.1932 5.80679 25.3125 7.1875 25.3125H22.8125C24.1932 25.3125 25.3125 24.1932 25.3125 22.8125V7.1875C25.3125 5.80679 24.1932 4.6875 22.8125 4.6875Z" stroke="#A9A9A9" stroke-width="3"/>
<path d="M10.3125 13.4375V20.3125" stroke="#A9A9A9" stroke-width="3" stroke-linecap="round" stroke-linejoin="round"/>
<path d="M10.3125 11.25C11.0029 11.25 11.5625 10.6904 11.5625 10C11.5625 9.30964 11.0029 8.75 10.3125 8.75C9.62214 8.75 9.0625 9.30964 9.0625 10C9.0625 10.6904 9.62214 11.25 10.3125 11.25Z" fill="#A9A9A9"/>
<path d="M19.6875 20.3125V16.25C19.6875 14.6967 18.4283 13.4375 16.875 13.4375C15.3217 13.4375 14.0625 14.6967 14.0625 16.25V20.3125" stroke="#A9A9A9" stroke-width="3" stroke-linecap="round"/>
</svg>
