<svg width="83" height="54" viewBox="0 0 83 54" fill="none" xmlns="http://www.w3.org/2000/svg">
<path d="M56.56 26.968C56.56 28.376 56.288 29.632 55.744 30.736C55.216 31.824 54.48 32.68 53.536 33.304C52.608 33.928 51.552 34.24 50.368 34.24C49.184 34.24 48.12 33.928 47.176 33.304C46.248 32.68 45.512 31.824 44.968 30.736C44.44 29.632 44.176 28.376 44.176 26.968C44.176 25.56 44.44 24.312 44.968 23.224C45.512 22.12 46.248 21.256 47.176 20.632C48.12 19.992 49.184 19.672 50.368 19.672C51.552 19.672 52.608 19.992 53.536 20.632C54.48 21.256 55.216 22.12 55.744 23.224C56.288 24.312 56.56 25.56 56.56 26.968ZM53.32 26.968C53.32 26.104 53.192 25.352 52.936 24.712C52.696 24.056 52.352 23.544 51.904 23.176C51.456 22.808 50.944 22.624 50.368 22.624C49.776 22.624 49.256 22.808 48.808 23.176C48.36 23.544 48.008 24.056 47.752 24.712C47.512 25.352 47.392 26.104 47.392 26.968C47.392 27.832 47.512 28.584 47.752 29.224C48.008 29.864 48.36 30.368 48.808 30.736C49.256 31.104 49.776 31.288 50.368 31.288C50.944 31.288 51.448 31.104 51.88 30.736C52.328 30.368 52.68 29.864 52.936 29.224C53.192 28.568 53.32 27.816 53.32 26.968Z" fill="white"/>
<path d="M68.3022 31.096V34H58.5582V31.096H61.9662V23.824C61.8222 24.016 61.5982 24.216 61.2942 24.424C60.9902 24.616 60.6462 24.8 60.2622 24.976C59.8782 25.152 59.4942 25.296 59.1102 25.408C58.7262 25.52 58.3822 25.576 58.0782 25.576V22.576C58.3662 22.576 58.7102 22.488 59.1102 22.312C59.5262 22.12 59.9342 21.896 60.3342 21.64C60.7502 21.384 61.1022 21.136 61.3902 20.896C61.6942 20.64 61.8862 20.44 61.9662 20.296H65.2542V31.096H68.3022Z" fill="white"/>
<path fill-rule="evenodd" clip-rule="evenodd" d="M80 3H32V51H80V3ZM29 0V54H83V0H29Z" fill="white"/>
<path fill-rule="evenodd" clip-rule="evenodd" d="M15.8596 28.5L29 28.5V25.5L15.8596 25.5C15.1575 21.7987 11.9056 19 8 19C3.58172 19 3.86258e-07 22.5817 0 27C-3.86258e-07 31.4183 3.58172 35 8 35C11.9056 35 15.1575 32.2013 15.8596 28.5Z" fill="white"/>
</svg>
