<svg width="84" height="54" viewBox="0 0 84 54" fill="none" xmlns="http://www.w3.org/2000/svg">
<path d="M26.56 26.968C26.56 28.376 26.288 29.632 25.744 30.736C25.216 31.824 24.48 32.68 23.536 33.304C22.608 33.928 21.552 34.24 20.368 34.24C19.184 34.24 18.12 33.928 17.176 33.304C16.248 32.68 15.512 31.824 14.968 30.736C14.44 29.632 14.176 28.376 14.176 26.968C14.176 25.56 14.44 24.312 14.968 23.224C15.512 22.12 16.248 21.256 17.176 20.632C18.12 19.992 19.184 19.672 20.368 19.672C21.552 19.672 22.608 19.992 23.536 20.632C24.48 21.256 25.216 22.12 25.744 23.224C26.288 24.312 26.56 25.56 26.56 26.968ZM23.32 26.968C23.32 26.104 23.192 25.352 22.936 24.712C22.696 24.056 22.352 23.544 21.904 23.176C21.456 22.808 20.944 22.624 20.368 22.624C19.776 22.624 19.256 22.808 18.808 23.176C18.36 23.544 18.008 24.056 17.752 24.712C17.512 25.352 17.392 26.104 17.392 26.968C17.392 27.832 17.512 28.584 17.752 29.224C18.008 29.864 18.36 30.368 18.808 30.736C19.256 31.104 19.776 31.288 20.368 31.288C20.944 31.288 21.448 31.104 21.88 30.736C22.328 30.368 22.68 29.864 22.936 29.224C23.192 28.568 23.32 27.816 23.32 26.968Z" fill="black"/>
<path d="M27.9342 34C27.9342 33.28 27.9902 32.632 28.1022 32.056C28.2142 31.48 28.4062 30.944 28.6782 30.448C28.9662 29.952 29.3502 29.488 29.8302 29.056C30.3262 28.608 30.9502 28.176 31.7022 27.76C32.3582 27.408 32.9342 27.104 33.4302 26.848C33.9262 26.576 34.3422 26.328 34.6782 26.104C35.0302 25.88 35.2942 25.656 35.4702 25.432C35.6462 25.192 35.7342 24.92 35.7342 24.616C35.7342 24.296 35.6462 24.008 35.4702 23.752C35.2942 23.48 35.0462 23.264 34.7262 23.104C34.4062 22.944 34.0062 22.864 33.5262 22.864C33.1422 22.864 32.7822 22.912 32.4462 23.008C32.1262 23.104 31.8222 23.24 31.5342 23.416C31.2622 23.592 31.0062 23.792 30.7662 24.016C30.5262 24.224 30.3102 24.448 30.1182 24.688L28.0782 22.336C28.3022 22.112 28.5982 21.872 28.9662 21.616C29.3502 21.344 29.7982 21.096 30.3102 20.872C30.8382 20.632 31.4142 20.44 32.0382 20.296C32.6782 20.136 33.3582 20.056 34.0782 20.056C35.1662 20.056 36.0942 20.232 36.8622 20.584C37.6302 20.92 38.2142 21.392 38.6142 22C39.0302 22.608 39.2382 23.32 39.2382 24.136C39.2382 24.696 39.1342 25.192 38.9262 25.624C38.7182 26.056 38.4542 26.44 38.1342 26.776C37.8142 27.096 37.4622 27.384 37.0782 27.64C36.7102 27.896 36.3502 28.12 35.9982 28.312C35.5022 28.568 35.0542 28.808 34.6542 29.032C34.2542 29.24 33.9022 29.456 33.5982 29.68C33.2942 29.888 33.0222 30.104 32.7822 30.328C32.5582 30.552 32.3582 30.808 32.1822 31.096H39.5022V34H27.9342Z" fill="black"/>
<path fill-rule="evenodd" clip-rule="evenodd" d="M27 50C39.7025 50 50 39.7025 50 27C50 14.2975 39.7025 4 27 4C14.2975 4 4 14.2975 4 27C4 39.7025 14.2975 50 27 50ZM27 54C41.9117 54 54 41.9117 54 27C54 12.0883 41.9117 0 27 0C12.0883 0 0 12.0883 0 27C0 41.9117 12.0883 54 27 54Z" fill="black"/>
<path fill-rule="evenodd" clip-rule="evenodd" d="M75 18.3398L83.6603 27L75 35.6603L67.8397 28.5H54V25.5H67.8397L75 18.3398Z" fill="black"/>
</svg>
