<svg width="39" height="16" viewBox="0 0 39 16" fill="none" xmlns="http://www.w3.org/2000/svg">
<g clip-path="url(#clip0_52_172)">
<path d="M-8.30078e-05 7.31522C0.220308 6.72229 0.359448 6.08011 0.676323 5.54463C1.68687 3.83763 3.22351 2.97798 5.18976 3.13904C7.3307 3.31548 8.75765 4.51366 9.46757 6.56739C9.49703 6.65151 9.52445 6.73562 9.55796 6.83616H11.7091C12.0666 5.53745 12.7958 4.4993 13.9597 3.7966C14.7742 3.3042 15.6639 3.06005 16.6084 3.11339C18.8205 3.23854 20.4323 4.567 21.1412 6.82898H23.21C23.3481 6.32426 23.4568 5.81032 23.6294 5.31894C24.8208 1.9388 28.1033 -0.223662 31.6569 0.0184356C35.3528 0.269766 38.422 3.18212 38.9278 6.9172C38.9359 6.97567 38.9745 7.02901 38.9989 7.08544V8.93194C38.9258 9.25098 38.8537 9.57104 38.7775 9.89008C38.0005 13.1328 35.3345 15.5342 32.0622 15.9394C27.8839 16.4575 24.0784 13.6436 23.2994 9.46128C23.2831 9.37408 23.2527 9.28894 23.2232 9.18327H21.1523C20.3662 11.8084 18.3228 12.8691 16.4693 12.9112C14.3212 12.9604 12.7521 11.7284 11.6837 9.17609H9.55492C9.11515 10.7272 8.2021 11.8679 6.73554 12.508C3.90195 13.7442 0.636714 11.9736 0.0740576 8.9104C0.0608545 8.83757 0.024292 8.76986 -0.00109863 8.7001C-0.00109863 8.23848 -0.00109863 7.77685 -0.00109863 7.31522H-8.30078e-05ZM36.7137 8.01587C36.7198 4.90963 34.1848 2.33786 31.1045 2.32452C28.0109 2.31118 25.4505 4.89425 25.4616 8.0169C25.4728 11.1354 28.0048 13.6898 31.0862 13.6898C34.1615 13.6898 36.7077 11.1221 36.7137 8.01484V8.01587ZM16.4439 10.5651C17.8495 10.5579 18.9718 9.41717 18.9687 7.99843C18.9657 6.58483 17.8323 5.44922 16.4256 5.45025C15.018 5.45025 13.8835 6.5838 13.8734 7.99741C13.8632 9.41717 15.02 10.5723 16.4429 10.5661L16.4439 10.5651ZM4.83531 10.5651C6.2389 10.5671 7.3825 9.42742 7.38859 8.01997C7.39468 6.61047 6.26328 5.45846 4.86171 5.44922C3.43984 5.43999 2.28304 6.59201 2.2871 8.01177C2.29117 9.41819 3.43374 10.563 4.83531 10.5641V10.5651Z" fill="white"/>
<path d="M34.5221 6.82794C33.1429 8.32156 31.7881 9.78953 30.4048 11.2883C29.3699 10.3281 28.3563 9.38638 27.301 8.4067C27.819 7.83428 28.3258 7.2752 28.8529 6.69253C29.3374 7.13774 29.8035 7.56757 30.2829 8.00765C31.1299 7.09158 31.9688 6.18576 32.8372 5.24609C33.3968 5.77132 33.9412 6.28116 34.5231 6.82691L34.5221 6.82794Z" fill="white"/>
</g>
<defs>
<clipPath id="clip0_52_172">
<rect width="39" height="16" fill="white"/>
</clipPath>
</defs>
</svg>
